<?xml version="1.0" standalone="no"?>
<!DOCTYPE svg PUBLIC "-//W3C//DTD SVG 20010904//EN"
 "http://www.w3.org/TR/2001/REC-SVG-20010904/DTD/svg10.dtd">
<svg version="1.0" xmlns="http://www.w3.org/2000/svg"
 width="434.000000pt" height="54.000000pt" viewBox="0 0 434.000000 54.000000"
 preserveAspectRatio="xMidYMid meet">

<g transform="translate(0.000000,54.000000) scale(0.100000,-0.100000)"
fill="#000000" stroke="none">
<path d="M0 270 l0 -270 55 0 55 0 0 270 0 270 -55 0 -55 0 0 -270z"/>
<path d="M268 487 l52 -53 0 -217 0 -217 55 0 55 0 0 162 0 163 163 -163 162
-162 58 0 57 0 0 270 0 270 -55 0 -55 0 -2 -186 -3 -185 -192 185 -191 186
-78 0 -78 0 52 -53z"/>
<path d="M980 517 c0 -13 14 -36 31 -53 l30 -29 259 0 259 0 30 29 c17 17 31
40 31 53 l0 23 -320 0 -320 0 0 -23z"/>
<path d="M1730 270 l0 -270 55 0 55 0 0 270 0 270 -55 0 -55 0 0 -270z"/>
<path d="M2006 489 l54 -52 0 -218 0 -219 55 0 55 0 0 162 0 163 163 -163 162
-162 53 0 52 0 0 270 0 270 -55 0 -55 0 0 -187 0 -188 -188 188 -187 187 -82
0 -82 0 55 -51z"/>
<path d="M2710 270 l0 -270 55 0 55 0 0 270 0 270 -55 0 -55 0 0 -270z"/>
<path d="M2930 517 c0 -13 14 -36 31 -53 29 -28 35 -29 135 -32 l104 -4 0
-214 0 -214 50 0 50 0 0 214 0 214 104 4 c100 3 106 4 135 32 17 17 31 40 31
53 l0 23 -320 0 -320 0 0 -23z"/>
<path d="M3686 518 c12 -41 35 -66 66 -77 19 -7 122 -11 260 -11 184 0 235 3
258 15 33 17 60 52 60 77 0 17 -20 18 -326 18 l-325 0 7 -22z"/>
<path d="M970 160 l0 -160 55 0 55 0 0 104 0 105 239 3 240 3 30 29 c17 17 31
40 31 53 l0 23 -325 0 -325 0 0 -160z"/>
<path d="M3686 298 c12 -41 35 -66 66 -77 19 -7 122 -11 260 -11 184 0 235 3
258 15 33 17 60 52 60 77 0 17 -20 18 -326 18 l-325 0 7 -22z"/>
<path d="M3686 102 c-2 -4 2 -21 9 -39 25 -59 46 -63 321 -63 l246 0 34 34
c19 19 34 43 34 55 0 21 -2 21 -319 21 -176 0 -322 -3 -325 -8z"/>
</g>
</svg>
